<svg width="11" height="11" viewBox="0 0 11 11" fill="none" xmlns="http://www.w3.org/2000/svg">
<path fill-rule="evenodd" clip-rule="evenodd" d="M4.7584 0.306794C4.94409 0.12135 5.19253 0.012232 5.45472 0.000967674C5.7169 -0.0102966 5.97379 0.0771108 6.1747 0.245945L6.24184 0.307318L7.23849 1.30345H8.64744C8.91203 1.3035 9.16683 1.40352 9.36079 1.58347C9.55476 1.76343 9.67356 2.01003 9.69341 2.27387L9.69655 2.35255V3.76151L10.6932 4.75816C10.8788 4.94387 10.988 5.19242 10.9993 5.45473C11.0105 5.71704 10.923 5.97404 10.7541 6.17498L10.6927 6.2416L9.69603 7.23825V8.6472C9.69611 8.91188 9.59615 9.16681 9.41618 9.36089C9.23621 9.55496 8.98954 9.67384 8.7256 9.69369L8.64744 9.69631H7.23902L6.24236 10.693C6.05665 10.8786 5.8081 10.9878 5.54579 10.999C5.28348 11.0103 5.02648 10.9228 4.82554 10.7538L4.75892 10.693L3.76227 9.69631H2.35279C2.08812 9.6964 1.83319 9.59643 1.63911 9.41646C1.44504 9.2365 1.32616 8.98982 1.30631 8.72589L1.30369 8.6472V7.23825L0.307033 6.2416C0.121443 6.05589 0.0122324 5.80734 0.000966961 5.54503C-0.0102984 5.28272 0.0772 5.02572 0.246185 4.82478L0.307033 4.75816L1.30369 3.76151V2.35255C1.30373 2.08797 1.40376 1.83317 1.58371 1.63921C1.76367 1.44524 2.01027 1.32644 2.27411 1.30659L2.35279 1.30345H3.76175L4.7584 0.306794ZM7.11522 3.9173L4.88901 6.14351L3.9616 5.2161C3.86317 5.11774 3.72971 5.06251 3.59056 5.06256C3.45141 5.06261 3.31798 5.11793 3.21962 5.21636C3.12126 5.31479 3.06603 5.44826 3.06608 5.5874C3.06613 5.72655 3.12145 5.85998 3.21988 5.95834L4.48091 7.21937C4.53449 7.27298 4.59812 7.3155 4.66814 7.34452C4.73816 7.37353 4.81322 7.38847 4.88901 7.38847C4.96481 7.38847 5.03986 7.37353 5.10989 7.34452C5.17991 7.3155 5.24353 7.27298 5.29712 7.21937L7.85694 4.65902C7.95249 4.56009 8.00537 4.42758 8.00417 4.29005C8.00297 4.15251 7.94781 4.02095 7.85055 3.92369C7.75329 3.82643 7.62173 3.77127 7.48419 3.77007C7.34666 3.76888 7.21415 3.82175 7.11522 3.9173Z" fill="#EC2C2B"/>
</svg>
