<svg width="24" height="24" viewBox="0 0 24 24" fill="none" xmlns="http://www.w3.org/2000/svg">
<path d="M12 24C18.6274 24 24 18.6274 24 12C24 5.37258 18.6274 0 12 0C5.37258 0 0 5.37258 0 12C0 18.6274 5.37258 24 12 24Z" fill="url(#paint0_linear_1110_776)"/>
<path d="M17.988 7.03611C18.0948 6.3457 17.4384 5.80076 16.8245 6.07028L4.59786 11.4384C4.15764 11.6317 4.18984 12.2985 4.64641 12.4439L7.16781 13.2469C7.6491 13.4001 8.17015 13.3209 8.59041 13.0305L14.2752 9.10311C14.4466 8.98466 14.6334 9.22843 14.487 9.37937L10.395 13.5982C9.99801 14.0075 10.0768 14.701 10.5543 15.0004L15.1357 17.8734C15.6496 18.1956 16.3106 17.8719 16.4067 17.2509L17.988 7.03611Z" fill="white"/>
<defs>
<linearGradient id="paint0_linear_1110_776" x1="12" y1="0" x2="12" y2="24" gradientUnits="userSpaceOnUse">
<stop stop-color="#37BBFE"/>
<stop offset="1" stop-color="#007DBB"/>
</linearGradient>
</defs>
</svg>
