<svg width="15" height="12" viewBox="0 0 15 12" fill="none" xmlns="http://www.w3.org/2000/svg">
<path d="M1.07031 5.3573H7.4991V6.42877H1.07031V5.3573Z" fill="white"/>
<path d="M0 2.67865H5.35733V3.75012H0V2.67865Z" fill="white"/>
<path d="M14.9556 5.68219L13.3484 1.93207C13.3072 1.83562 13.2386 1.75341 13.1511 1.69565C13.0636 1.63789 12.961 1.60713 12.8561 1.6072H11.2489V0.535733C11.2489 0.393647 11.1925 0.257382 11.092 0.156913C10.9915 0.0564432 10.8553 0 10.7132 0H2.14147V1.07147H10.1775V7.79823C9.93337 7.93999 9.71975 8.12865 9.54892 8.35335C9.3781 8.57805 9.25343 8.83435 9.18212 9.10745H5.81547C5.68508 8.60244 5.37498 8.16232 4.94329 7.86959C4.51161 7.57686 3.98799 7.45162 3.47057 7.51734C2.95315 7.58306 2.47746 7.83523 2.13267 8.22659C1.78788 8.61794 1.59766 9.12161 1.59766 9.64319C1.59766 10.1648 1.78788 10.6684 2.13267 11.0598C2.47746 11.4511 2.95315 11.7033 3.47057 11.769C3.98799 11.8348 4.51161 11.7095 4.94329 11.4168C5.37498 11.1241 5.68508 10.6839 5.81547 10.1789H9.18212C9.29894 10.6384 9.56556 11.0459 9.93986 11.337C10.3142 11.628 10.7748 11.7861 11.2489 11.7861C11.7231 11.7861 12.1837 11.628 12.558 11.337C12.9323 11.0459 13.1989 10.6384 13.3157 10.1789H14.4633C14.6054 10.1789 14.7417 10.1225 14.8421 10.022C14.9426 9.92154 14.9991 9.78527 14.9991 9.64319V5.89306C14.999 5.82055 14.9843 5.7488 14.9556 5.68219ZM3.74867 10.7147C3.53675 10.7147 3.32959 10.6518 3.15339 10.5341C2.97719 10.4163 2.83986 10.249 2.75876 10.0532C2.67767 9.85744 2.65645 9.642 2.69779 9.43415C2.73913 9.22631 2.84118 9.03539 2.99103 8.88555C3.14087 8.7357 3.33179 8.63365 3.53963 8.59231C3.74748 8.55097 3.96291 8.57219 4.1587 8.65328C4.35448 8.73438 4.52182 8.87171 4.63956 9.04791C4.75729 9.22411 4.82013 9.43127 4.82013 9.64319C4.81981 9.92726 4.70682 10.1996 4.50595 10.4005C4.30508 10.6013 4.03274 10.7143 3.74867 10.7147ZM11.2489 2.67866H12.503L13.6511 5.35733H11.2489V2.67866ZM11.2489 10.7147C11.037 10.7147 10.8299 10.6518 10.6536 10.5341C10.4774 10.4163 10.3401 10.249 10.259 10.0532C10.1779 9.85744 10.1567 9.642 10.198 9.43415C10.2394 9.22631 10.3414 9.03539 10.4913 8.88555C10.6411 8.7357 10.832 8.63365 11.0399 8.59231C11.2477 8.55097 11.4632 8.57219 11.659 8.65328C11.8547 8.73438 12.0221 8.87171 12.1398 9.04791C12.2575 9.22411 12.3204 9.43127 12.3204 9.64319C12.3201 9.92726 12.2071 10.1996 12.0062 10.4005C11.8053 10.6013 11.533 10.7143 11.2489 10.7147ZM13.9276 9.10745H13.3157C13.1977 8.64859 12.9307 8.24186 12.5567 7.95101C12.1827 7.66016 11.7227 7.50162 11.2489 7.50026V6.42879H13.9276V9.10745Z" fill="white"/>
</svg>
