<svg width="18" height="18" viewBox="0 0 18 18" fill="none" xmlns="http://www.w3.org/2000/svg">
<path d="M15.9697 2.18551C13.755 3.10279 4.25853 7.03633 1.63467 8.10841C-0.12501 8.79511 0.90513 9.43897 0.90513 9.43897C0.90513 9.43897 2.40723 9.95395 3.69495 10.3402C4.98249 10.7265 5.66919 10.2974 5.66919 10.2974L11.7208 6.22003C13.8667 4.76077 13.3518 5.96245 12.8366 6.47761C11.7208 7.59361 9.87525 9.35311 8.33013 10.7695C7.64343 11.3704 7.98669 11.8853 8.28729 12.1429C9.40311 13.0872 12.4505 15.0186 12.6221 15.1473C13.5287 15.7892 15.3122 16.7131 15.5834 14.761L16.6564 8.02273C16.9998 5.74807 17.3431 3.64495 17.3859 3.04411C17.5148 1.58467 15.9697 2.18551 15.9697 2.18551Z" fill="#1B92D1"/>
</svg>
