<svg width="12" height="9" viewBox="0 0 12 9" fill="none" xmlns="http://www.w3.org/2000/svg">
<path fill-rule="evenodd" clip-rule="evenodd" d="M11.6891 0.170974C11.7758 0.233383 11.8475 0.310064 11.9002 0.396638C11.9529 0.483212 11.9855 0.577983 11.9961 0.675538C12.0068 0.773093 11.9953 0.871522 11.9623 0.965203C11.9293 1.05888 11.8754 1.14598 11.8038 1.22152L4.91957 8.48135L4.917 8.48284C4.76051 8.64682 4.56402 8.77833 4.34183 8.86778C4.11965 8.95723 3.87736 9.00237 3.63263 8.9999C3.38423 8.99727 3.13974 8.9457 2.91746 8.84905C2.69518 8.7524 2.50088 8.61317 2.34911 8.4418L2.34826 8.44031L0.192225 6.02584C0.120234 5.94878 0.0666314 5.85997 0.0345617 5.76462C0.00249193 5.66927 -0.00739849 5.56929 0.00547083 5.47057C0.0183401 5.37184 0.0537099 5.27634 0.109505 5.18969C0.165299 5.10303 0.240395 5.02696 0.330384 4.96594C0.420374 4.90491 0.523445 4.86017 0.633548 4.83433C0.743652 4.80848 0.85857 4.80206 0.971559 4.81544C1.08455 4.82883 1.19333 4.86174 1.29153 4.91225C1.38972 4.96276 1.47535 5.02986 1.54338 5.10959L3.65318 7.47258L10.4826 0.270955C10.5542 0.195401 10.6422 0.132882 10.7416 0.0869666C10.8409 0.0410517 10.9497 0.0126406 11.0616 0.00335626C11.1736 -0.00592812 11.2865 0.00409596 11.3941 0.032856C11.5016 0.0616161 11.6024 0.108549 11.6891 0.170974Z" fill="white"/>
</svg>
